# Blender 4.3.2
# www.blender.org
mtllib gate.mtl
o Cube
v 0.100000 1.524000 1.524000
v 0.100000 1.524000 -1.524000
v 0.100000 -1.524000 1.524000
v 0.100000 -1.524000 -1.524000
v -0.100000 1.524000 1.524000
v -0.100000 1.524000 -1.524000
v -0.100000 -1.524000 1.524000
v -0.100000 -1.524000 -1.524000
v -0.100000 1.524000 -1.524000
v -0.100000 -1.524000 -1.524000
v 0.100000 1.524000 -1.524000
v 0.100000 1.524000 1.524000
v -0.100000 -1.524000 1.524000
v 0.100000 -1.524000 1.524000
v 0.100000 -1.524000 -1.524000
v -0.100000 1.524000 1.524000
v -0.100000 1.864626 -1.864626
v -0.100000 -1.864626 -1.864626
v 0.100000 1.864626 -1.864626
v 0.100000 1.864626 1.864626
v -0.100000 -1.864626 1.864626
v 0.100000 -1.864626 1.864626
v 0.100000 -1.864626 -1.864626
v -0.100000 1.864626 1.864626
v -0.100000 2.133325 -2.133325
v -0.100000 -2.133325 -2.133325
v 0.100000 2.133325 -2.133325
v 0.100000 2.133325 2.133325
v -0.100000 -2.133325 2.133325
v 0.100000 -2.133325 2.133325
v 0.100000 -2.133325 -2.133325
v -0.100000 2.133325 2.133325
vn -0.0000 -0.0000 1.0000
vn -1.0000 -0.0000 -0.0000
vn 1.0000 -0.0000 -0.0000
vn -0.0000 1.0000 -0.0000
vn -0.0000 -0.0000 -1.0000
vn -0.0000 -1.0000 -0.0000
vt 0.375000 0.500000
vt 0.375000 0.750000
vt 0.625000 0.500000
vt 0.625000 0.750000
vt 0.375000 0.250000
vt 0.375000 0.000000
vt 0.625000 0.000000
vt 0.625000 0.250000
vt 0.875000 0.500000
vt 0.875000 0.750000
vt 0.625000 1.000000
vt 0.375000 1.000000
vt 0.125000 0.500000
vt 0.125000 0.750000
s 0
usemtl Material
f 2/1/1 4/2/1 15/2/1 11/1/1
f 1/3/1 2/1/1 11/1/1 12/3/1
f 4/2/1 3/4/1 14/4/1 15/2/1
f 15/2/1 11/1/1 9/5/1 10/6/1
f 7/7/1 8/6/1 10/6/1 13/7/1
f 16/8/2 13/7/2 21/7/2 24/8/2
f 10/6/2 9/5/2 17/5/2 18/6/2
f 11/1/3 15/2/3 23/2/3 19/1/3
f 12/3/3 11/1/3 19/1/3 20/3/3
f 8/6/1 6/5/1 9/5/1 10/6/1
f 5/8/1 7/7/1 13/7/1 16/8/1
f 3/4/1 1/3/1 12/3/1 14/4/1
f 6/5/1 5/8/1 16/8/1 9/5/1
f 18/6/2 17/5/2 25/5/2 26/6/2
f 19/1/3 23/2/3 31/2/3 27/1/3
f 20/3/3 19/1/3 27/1/3 28/3/3
f 23/2/3 22/4/3 30/4/3 31/2/3
f 14/4/3 12/3/3 20/3/3 22/4/3
f 9/5/2 16/8/2 24/8/2 17/5/2
f 13/7/2 10/6/2 18/6/2 21/7/2
f 15/2/3 14/4/3 22/4/3 23/2/3
f 14/4/4 15/2/4 10/6/4 13/7/4
f 13/7/5 16/8/5 12/3/5 14/4/5
f 9/5/4 16/8/4 12/3/4 11/1/4
f 28/3/1 32/9/1 29/10/1 30/4/1
f 31/2/6 30/4/6 29/11/6 26/12/6
f 25/13/5 27/1/5 31/2/5 26/14/5
f 25/5/4 32/8/4 28/3/4 27/1/4
f 24/8/2 21/7/2 29/7/2 32/8/2
f 22/4/3 20/3/3 28/3/3 30/4/3
f 17/5/2 24/8/2 32/8/2 25/5/2
f 21/7/2 18/6/2 26/6/2 29/7/2
